HIERARCHY
ROOT Hips
{
	OFFSET 0.000000 0.000000 0.000000 
	CHANNELS 6 Xposition Yposition Zposition Zrotation Yrotation Xrotation
	JOINT LeftUpLeg
	{
		OFFSET 1.363060 -1.794630 0.839290 
		CHANNELS 3 Zrotation Yrotation Xrotation
		JOINT LeftLeg
		{
			OFFSET 2.448110 -6.726130 0.000000 
			CHANNELS 3 Zrotation Yrotation Xrotation
			JOINT LeftFoot
			{
				OFFSET 2.562200 -7.039590 0.000000 
				CHANNELS 3 Zrotation Yrotation Xrotation
				JOINT LeftToeBase
				{
					OFFSET 0.157640 -0.433110 2.322550 
					CHANNELS 3 Zrotation Yrotation Xrotation
					End Site
					{
						OFFSET 0.000000 0.000000 0.000000 
					}
				}
			}
		}
	}
	JOINT RightUpLeg
	{
		OFFSET -1.305520 -1.794630 0.839290 
		CHANNELS 3 Zrotation Yrotation Xrotation
		JOINT RightLeg
		{
			OFFSET -2.542530 -6.985550 0.000000 
			CHANNELS 3 Zrotation Yrotation Xrotation
			JOINT RightFoot
			{
				OFFSET -2.568260 -7.056230 0.000000 
				CHANNELS 3 Zrotation Yrotation Xrotation
				JOINT RightToeBase
				{
					OFFSET -0.164730 -0.452590 2.363150 
					CHANNELS 3 Zrotation Yrotation Xrotation
					End Site
					{
						OFFSET 0.000000 0.000000 0.000000 
					}
				}
			}
		}
	}
	JOINT Spine
	{
		OFFSET 0.028270 2.035590 -0.193380 
		CHANNELS 3 Zrotation Yrotation Xrotation
		JOINT Spine1
		{
			OFFSET 0.056720 2.048850 -0.042750 
			CHANNELS 3 Zrotation Yrotation Xrotation
			JOINT Neck1
			{
				OFFSET -0.054170 1.746240 0.172020 
				CHANNELS 3 Zrotation Yrotation Xrotation
				JOINT Head
				{
					OFFSET 0.104070 1.761360 -0.123970 
					CHANNELS 3 Zrotation Yrotation Xrotation
					End Site
					{
						OFFSET 0.000000 0.000000 0.000000 
					}
				}
			}
			JOINT LeftArm
			{
				OFFSET 3.362410 1.200890 -0.311210 
				CHANNELS 3 Zrotation Yrotation Xrotation
				JOINT LeftForeArm
				{
					OFFSET 4.983000 -0.000000 -0.000000 
					CHANNELS 3 Zrotation Yrotation Xrotation
					JOINT LeftHand
					{
						OFFSET 3.483560 -0.000000 -0.000000 
						CHANNELS 3 Zrotation Yrotation Xrotation
						JOINT LeftHandIndex1
						{
							OFFSET 0.715260 -0.000000 -0.000000 
							CHANNELS 3 Zrotation Yrotation Xrotation
							End Site
							{
								OFFSET 0.000000 0.000000 0.000000 
							}
						}
					}
				}
			}
			JOINT RightArm
			{
				OFFSET -3.136600 1.374050 -0.404650 
				CHANNELS 3 Zrotation Yrotation Xrotation
				JOINT RightForeArm
				{
					OFFSET -5.241900 -0.000000 -0.000000 
					CHANNELS 3 Zrotation Yrotation Xrotation
					JOINT RightHand
					{
						OFFSET -3.444170 -0.000000 -0.000000 
						CHANNELS 3 Zrotation Yrotation Xrotation
						JOINT RightHandIndex1
						{
							OFFSET -0.622530 -0.000000 -0.000000 
							CHANNELS 3 Zrotation Yrotation Xrotation
							End Site
							{
								OFFSET 0.000000 0.000000 0.000000 
							}
						}
					}
				}
			}
		}
	}
}
MOTION
Frames: 15
Frame Time: 0.041667
-26.819551 15.882775 5.707021 -165.925989 21.480923 -153.569528 -19.149464 5.323628 -46.770288 15.291430 21.745336 74.542689 -8.142459 27.247607 -4.840275 8.317600 16.347900 53.698600 15.877014 -16.243578 -14.789761 -12.906740 -18.438304 68.944884 -0.593604 0.415210 15.090532 -6.429400 14.831900 -46.681700 0.484436 -1.759633 -1.815823 -2.141164 -0.042202 2.010231 5.509690 -1.123971 -3.269058 6.038900 2.964800 -9.580000 -91.748654 11.146370 33.274236 19.031273 -37.206243 -9.222340 2.152017 -1.404175 -61.668457 -7.125000 0.000000 0.000000 88.431162 0.122096 -2.842315 -79.880711 59.067418 -63.712733 1.467098 1.043266 -46.328692 7.125000 0.000000 0.000000 
-26.779788 15.885081 5.349388 -168.060318 17.785506 -153.949446 -19.808945 0.669962 -44.561353 14.731928 21.785228 73.240608 -8.243412 27.665246 -4.313576 8.259700 16.307000 53.492900 15.348378 -19.129289 -19.229167 -14.813261 -19.024123 74.131616 -0.589961 0.659436 14.052471 -5.416400 13.837900 -42.591900 0.621245 -4.081106 -1.887314 -2.733204 -1.056208 1.909267 5.368449 -1.066378 -3.131174 6.042900 2.944900 -9.619300 -91.919270 7.368624 33.430109 19.979269 -37.650099 -9.842732 2.115048 -1.460086 -64.373250 -7.125000 0.000000 0.000000 87.560201 -0.031879 -4.105748 -80.142112 59.208251 -64.421152 1.420371 1.129735 -48.755591 7.125000 0.000000 0.000000 
-26.545247 15.998721 4.975966 -167.462639 19.964967 -155.438241 -19.598729 5.249422 -41.154759 14.002369 21.166411 71.100717 -7.955247 26.356147 -3.826272 8.577600 16.528100 54.617700 15.155940 -15.742184 -19.555276 -16.224543 -19.518908 78.111988 0.168686 -1.967528 11.774414 -5.427900 13.850100 -42.640200 0.510175 -2.852613 -1.792036 -1.361293 -0.603437 1.603967 5.449820 -0.931018 -2.923788 5.897800 2.848100 -9.630300 -91.327804 3.920207 32.835655 20.427042 -38.127732 -10.487813 2.066629 -1.603907 -69.004495 -7.125000 0.000000 0.000000 87.450852 -0.290705 -5.617614 -80.944514 59.450239 -65.386558 1.335161 1.290278 -52.013259 7.125000 0.000000 0.000000 
-26.428956 16.049087 4.603812 -167.824704 19.142070 -155.975016 -19.632379 5.336492 -38.555829 13.287802 20.797841 69.022641 -8.074341 26.541236 -3.266928 8.766300 16.654900 55.278300 15.294475 -14.998384 -22.475083 -17.619153 -19.935301 82.039462 0.444615 -2.829576 10.817846 -5.129200 13.527800 -41.377700 0.533694 -3.401351 -1.817607 -1.227130 -0.865625 1.260250 5.382325 -0.778947 -2.656982 5.869700 2.808600 -9.539000 -91.132495 0.858245 31.895211 21.453809 -38.786247 -11.339459 2.162825 -1.717297 -72.456692 -7.125000 0.000000 0.000000 86.802944 -0.290824 -7.165974 -81.269970 59.575047 -66.117935 1.266012 1.412491 -54.558491 7.125000 0.000000 0.000000 
-26.319695 16.099222 4.227969 -168.025768 18.330152 -156.363074 -19.565197 5.735160 -36.096722 12.533409 20.374580 66.772556 -8.236356 26.833206 -2.766081 8.908100 16.748200 55.771800 15.642902 -13.914982 -25.457788 -18.822049 -20.281415 85.467195 0.783571 -3.885750 9.217462 -5.063800 13.455300 -41.097800 0.578545 -3.962200 -1.839320 -0.809154 -1.150946 1.075891 5.454637 -0.537451 -2.251900 6.100900 2.872500 -9.261800 -91.040428 -1.712950 32.278657 23.870711 -40.611310 -12.940438 2.340458 -1.754768 -78.299532 -7.125000 0.000000 0.000000 85.757770 0.150085 -8.307679 -80.799425 59.501860 -66.177151 1.225050 1.530888 -55.544556 7.125000 0.000000 0.000000 
-26.211241 16.138754 3.846594 -168.188550 17.715916 -156.516774 -19.602739 6.402504 -33.952410 11.808862 19.929418 64.493313 -8.454020 27.325213 -1.980329 9.173100 16.917800 56.686800 15.893205 -12.672518 -28.560617 -19.883477 -20.573182 88.516882 1.058738 -4.726732 7.742759 -4.740800 13.085900 -39.690800 0.635603 -4.461755 -1.858507 -0.236597 -1.447218 1.085936 5.477110 -0.381779 -1.845129 6.244500 2.890200 -8.926400 -90.966523 -4.072230 33.510790 26.713923 -42.653850 -14.734577 2.409526 -1.700869 -83.359617 -7.125000 0.000000 0.000000 84.524178 0.779138 -9.015416 -80.174854 59.386950 -66.036697 1.210102 1.629279 -55.032171 7.125000 0.000000 0.000000 
-26.099676 16.167106 3.468908 -168.364714 17.045288 -156.484292 -19.559081 6.897658 -32.028378 11.087918 19.474252 62.259744 -8.521769 27.386315 -1.147860 9.332700 17.017100 57.233600 16.180434 -11.524394 -32.202075 -20.706016 -20.845684 90.810032 1.333053 -5.618759 6.786991 -4.288600 12.534900 -37.651400 0.705498 -4.901380 -1.903647 0.325653 -1.750186 0.963780 5.388206 -0.301277 -1.528966 6.159500 2.823900 -8.653000 -90.824857 -6.230449 34.433354 29.303759 -44.347897 -16.431962 2.352457 -1.676020 -85.532463 -7.125000 0.000000 0.000000 83.256988 1.375533 -9.549294 -79.765328 59.299376 -66.023491 1.206292 1.713672 -53.793170 7.125000 0.000000 0.000000 
-25.980619 16.222544 3.080733 -168.489875 16.403773 -156.258230 -19.307155 7.443970 -30.202885 10.290290 18.960503 59.834503 -8.460324 27.025341 -0.381572 9.340100 17.021700 57.259000 16.737530 -9.703307 -35.706401 -21.208817 -21.141500 92.356160 1.489417 -5.998131 4.921357 -3.805700 11.897200 -35.369400 0.795367 -5.283345 -1.965775 1.224984 -2.073627 0.746999 5.372765 0.048349 -1.242931 6.173000 2.912200 -8.479500 -90.525067 -7.974363 35.123556 32.615792 -46.378049 -18.680488 2.322424 -1.646503 -89.083158 -7.125000 0.000000 0.000000 81.771191 2.154612 -9.721815 -79.583293 59.239552 -66.156201 1.189529 1.803601 -52.497168 7.125000 0.000000 0.000000 
-25.855914 16.266225 2.677345 -168.631773 15.870810 -156.022401 -19.035034 8.087691 -28.384220 9.447815 18.399537 57.354058 -8.325736 26.407941 0.029906 9.175000 16.919000 56.693400 17.113204 -7.715498 -39.117492 -21.475375 -21.460977 93.140254 1.654238 -6.488795 3.556821 -3.509000 11.476600 -33.904700 0.888846 -5.692724 -2.010712 2.157777 -2.414224 0.732171 5.359213 0.465803 -0.970475 6.201600 3.055300 -8.326200 -89.967131 -9.487170 35.736484 36.303602 -48.417749 -21.256000 2.343763 -1.571157 -94.684744 -7.125000 0.000000 0.000000 80.263187 3.282668 -9.674726 -79.828371 59.280132 -66.606833 1.164668 1.883709 -51.223027 7.125000 0.000000 0.000000 
-25.740776 16.310597 2.237306 -169.048739 15.145902 -156.436120 -18.860084 8.439433 -25.723253 8.514861 17.748571 54.610960 -8.198307 25.869334 0.469803 8.890700 16.736800 55.711200 16.969878 -6.348232 -41.749444 -21.450035 -21.746590 92.972036 1.762100 -6.818634 2.870297 -3.512100 11.481200 -33.920400 0.973743 -6.281398 -2.026406 2.766247 -2.777368 0.746454 5.217975 0.745058 -0.805969 6.060900 3.121000 -8.218200 -89.219696 -10.955429 36.169295 39.552276 -49.971516 -23.616003 2.362634 -1.481935 -99.715698 -7.125000 0.000000 0.000000 78.988004 4.704739 -9.798173 -80.664983 59.442705 -67.538002 1.143195 1.942704 -49.999446 7.125000 0.000000 0.000000 
-25.632322 16.360618 1.778711 -169.736085 14.354483 -156.982290 -18.843799 8.576985 -22.861430 7.581768 17.031988 51.610297 -8.206011 25.890237 1.657732 8.735300 16.634300 55.170100 16.489261 -5.261443 -44.171828 -21.170315 -22.025571 92.123519 1.599835 -6.166539 2.026625 -3.965600 12.114400 -36.138000 1.060591 -6.995402 -2.056900 3.375215 -3.190553 0.635922 5.040931 1.111812 -0.707462 5.934500 3.246500 -8.211500 -88.447077 -12.205646 36.138013 42.667418 -51.264623 -25.980058 2.361669 -1.403506 -103.948591 -7.125000 0.000000 0.000000 77.938392 6.264479 -10.013770 -82.074457 59.707664 -68.895073 1.118872 1.973796 -48.492321 7.125000 0.000000 0.000000 
-25.462092 16.428272 1.321730 -169.925016 14.885907 -157.833440 -18.564925 10.434782 -19.948264 6.730803 16.180569 48.406447 -8.028631 25.672775 4.111080 8.939800 16.768800 55.881700 16.237133 -2.465385 -45.505886 -20.677498 -22.403681 90.690361 1.713757 -6.563018 1.235094 -3.979800 12.133500 -36.206000 1.088514 -6.836219 -2.031434 4.548295 -3.256834 0.604788 4.972861 1.575952 -0.574869 5.817000 3.406600 -8.170500 -87.235377 -13.141988 35.860126 46.149688 -52.603456 -28.739010 2.343961 -1.338281 -108.398164 -7.125000 0.000000 0.000000 77.454912 8.121856 -10.319464 -84.001756 60.036010 -70.487660 1.089557 1.975336 -46.384952 7.125000 0.000000 0.000000 
-25.342459 16.485437 0.837203 -170.151254 14.563073 -157.766213 -18.213873 10.978967 -17.596752 5.844028 15.326023 45.088601 -7.630797 25.071820 7.193502 8.982200 16.796300 56.028700 15.954086 -0.403831 -47.817393 -19.850655 -22.770870 88.232610 1.725787 -6.541587 1.337778 -3.948400 12.091500 -36.056400 1.169668 -7.190461 -2.044153 5.079549 -3.552342 0.840484 4.726267 1.969240 -0.384203 5.590900 3.528100 -8.014100 -85.929426 -13.635258 35.837546 50.106701 -53.945861 -31.908918 2.325915 -1.249843 -113.199083 -7.125000 0.000000 0.000000 76.977424 10.469934 -10.538540 -85.931642 60.302267 -72.089202 1.073311 1.950686 -43.965612 7.125000 0.000000 0.000000 
-25.243571 16.535112 0.339538 -170.409073 14.396968 -157.429443 -18.010096 11.314940 -15.454337 4.948161 14.436743 41.782734 -7.186017 24.416599 9.884267 8.667300 16.588800 54.932300 15.519589 1.336391 -50.250768 -18.926837 -23.080522 85.588522 1.609218 -6.113873 1.097912 -3.957500 12.103600 -36.099400 1.275739 -7.647366 -2.077675 5.711536 -3.932455 1.086511 4.280349 2.406663 -0.240157 5.205200 3.663800 -7.897400 -84.882566 -13.669261 35.635871 54.126920 -55.162885 -35.204134 2.284301 -1.172165 -117.175387 -7.125000 0.000000 0.000000 76.383555 13.102530 -10.224999 -87.898877 60.487824 -73.604030 1.054368 1.916259 -41.521936 7.125000 0.000000 0.000000 
-25.147795 16.570956 -0.169193 -170.806869 14.394862 -157.022535 -18.016989 11.687241 -13.525825 4.144631 13.553509 38.554605 -6.761355 24.189438 12.945344 8.448500 16.439500 54.162700 14.856656 2.854486 -52.731648 -17.870573 -23.325685 82.647327 1.345093 -5.210839 0.766919 -3.776600 11.857000 -35.227900 1.400282 -8.175320 -2.137393 6.630660 -4.378235 1.250264 3.803846 3.057868 -0.066951 4.869000 3.917000 -7.806100 -84.410053 -13.411451 34.809569 57.646485 -56.079436 -38.175550 2.219295 -1.110471 -120.395867 -7.125000 0.000000 0.000000 75.826477 15.873874 -9.334885 -90.141157 60.610651 -75.175222 1.025973 1.864864 -38.894170 7.125000 0.000000 0.000000 
